<svg width="106" height="40" viewBox="0 0 106 40" fill="none" xmlns="http://www.w3.org/2000/svg">
<path d="M50.344 25.784C50.3333 25.9653 50.3067 26.1573 50.264 26.36C50.232 26.5627 50.1307 26.728 49.96 26.856C49.832 26.9627 49.688 27.0267 49.528 27.048C49.368 27.0693 49.208 27.0587 49.048 27.016C48.8987 26.984 48.7547 26.9307 48.616 26.856C48.4773 26.7707 48.3653 26.6693 48.28 26.552C47.9173 26.104 47.5813 25.6453 47.272 25.176C46.9733 24.696 46.6693 24.216 46.36 23.736L45.016 21.704C44.8347 21.416 44.6427 21.096 44.44 20.744C44.2373 20.3813 44.0293 20.0453 43.816 19.736L43.768 25.848V25.992C43.768 26.1627 43.736 26.3333 43.672 26.504C43.6187 26.664 43.5227 26.8027 43.384 26.92C43.2773 27.0053 43.1387 27.064 42.968 27.096C42.7013 27.1493 42.4773 27.1333 42.296 27.048C42.1253 26.9627 41.9867 26.8453 41.88 26.696C41.784 26.5467 41.7147 26.376 41.672 26.184C41.64 25.9813 41.6347 25.784 41.656 25.592V25.32L41.688 24.072L41.704 21.752C41.7147 21.4107 41.72 21.064 41.72 20.712C41.72 20.3493 41.72 19.9813 41.72 19.608C41.7093 19.1493 41.7093 18.664 41.72 18.152C41.7413 17.64 41.7627 17.16 41.784 16.712C41.8053 16.4667 41.864 16.2587 41.96 16.088C42.0027 15.9387 42.1147 15.8107 42.296 15.704C42.4133 15.6293 42.5627 15.5813 42.744 15.56C42.936 15.5387 43.1013 15.544 43.24 15.576C43.2933 15.5973 43.3467 15.624 43.4 15.656C43.4533 15.6773 43.5067 15.704 43.56 15.736C43.6133 15.7787 43.6613 15.8213 43.704 15.864C43.7573 15.9067 43.8053 15.9547 43.848 16.008C43.9013 16.0613 43.9493 16.12 43.992 16.184C44.0347 16.2373 44.0773 16.2907 44.12 16.344C44.152 16.408 44.184 16.4667 44.216 16.52C44.248 16.5733 44.2853 16.6267 44.328 16.68L44.504 16.936L48.2 22.76V21.704C48.2 21.3627 48.1947 21.016 48.184 20.664C48.184 20.3013 48.1787 19.928 48.168 19.544C48.168 19.096 48.168 18.616 48.168 18.104C48.1787 17.592 48.1947 17.112 48.216 16.664C48.216 16.4827 48.2693 16.2747 48.376 16.04C48.4293 15.9013 48.52 15.7893 48.648 15.704C48.776 15.6187 48.92 15.56 49.08 15.528C49.24 15.496 49.4 15.496 49.56 15.528C49.72 15.56 49.8587 15.624 49.976 15.72C50.008 15.752 50.04 15.7893 50.072 15.832C50.104 15.8747 50.1307 15.9227 50.152 15.976C50.2053 16.1147 50.2373 16.2373 50.248 16.344C50.28 16.4933 50.296 16.6267 50.296 16.744C50.296 18.0773 50.296 19.4373 50.296 20.824C50.3067 22.2107 50.3173 23.5707 50.328 24.904C50.328 25.0533 50.3333 25.2027 50.344 25.352C50.3547 25.4907 50.3547 25.6347 50.344 25.784ZM54.472 16.056C55.1867 15.7893 55.832 15.672 56.408 15.704C56.9947 15.736 57.5173 15.8853 57.976 16.152C58.4347 16.408 58.824 16.7547 59.144 17.192C59.4747 17.6293 59.7413 18.12 59.944 18.664C60.104 19.0693 60.2267 19.496 60.312 19.944C60.3973 20.392 60.4453 20.84 60.456 21.288C60.4773 21.7253 60.4613 22.1573 60.408 22.584C60.3653 23.0107 60.2907 23.4053 60.184 23.768C60.12 24.0133 60.0453 24.2373 59.96 24.44C59.8747 24.6427 59.7733 24.8453 59.656 25.048C59.3893 25.5067 59.0427 25.88 58.616 26.168C58.2 26.456 57.7413 26.6587 57.24 26.776C56.8987 26.8613 56.5467 26.904 56.184 26.904C55.8213 26.8933 55.464 26.8453 55.112 26.76C54.76 26.664 54.4187 26.5307 54.088 26.36C53.768 26.1787 53.4747 25.9547 53.208 25.688C52.8773 25.368 52.6053 25 52.392 24.584C52.1787 24.1573 52.0133 23.7147 51.896 23.256C51.7787 22.7867 51.704 22.3173 51.672 21.848C51.64 21.3787 51.64 20.9307 51.672 20.504C51.704 20.1093 51.7787 19.688 51.896 19.24C52.024 18.792 52.2053 18.36 52.44 17.944C52.6747 17.528 52.9573 17.1547 53.288 16.824C53.6293 16.4827 54.024 16.2267 54.472 16.056ZM58.216 22.904C58.344 22.4027 58.3973 21.8373 58.376 21.208C58.3547 20.5787 58.2533 19.9867 58.072 19.432C57.9547 19.0907 57.8053 18.792 57.624 18.536C57.4533 18.2693 57.2453 18.0667 57 17.928C56.7653 17.7893 56.488 17.72 56.168 17.72C55.848 17.72 55.4907 17.816 55.096 18.008C54.8613 18.1253 54.6587 18.2853 54.488 18.488C54.328 18.6907 54.1947 18.92 54.088 19.176C53.992 19.432 53.912 19.6987 53.848 19.976C53.7947 20.2533 53.7627 20.52 53.752 20.776C53.7307 21.0533 53.7253 21.3467 53.736 21.656C53.7467 21.9547 53.7787 22.2587 53.832 22.568C53.896 22.8667 53.9813 23.1547 54.088 23.432C54.1947 23.6987 54.3387 23.9387 54.52 24.152C54.7973 24.472 55.1173 24.696 55.48 24.824C55.8533 24.9413 56.2213 24.9573 56.584 24.872C57.1707 24.744 57.6187 24.3547 57.928 23.704C58.056 23.4693 58.152 23.2027 58.216 22.904ZM64.597 16.056C65.3117 15.7893 65.957 15.672 66.533 15.704C67.1197 15.736 67.6423 15.8853 68.101 16.152C68.5597 16.408 68.949 16.7547 69.269 17.192C69.5997 17.6293 69.8663 18.12 70.069 18.664C70.229 19.0693 70.3517 19.496 70.437 19.944C70.5223 20.392 70.5703 20.84 70.581 21.288C70.6023 21.7253 70.5863 22.1573 70.533 22.584C70.4903 23.0107 70.4157 23.4053 70.309 23.768C70.245 24.0133 70.1703 24.2373 70.085 24.44C69.9997 24.6427 69.8983 24.8453 69.781 25.048C69.5143 25.5067 69.1677 25.88 68.741 26.168C68.325 26.456 67.8663 26.6587 67.365 26.776C67.0237 26.8613 66.6717 26.904 66.309 26.904C65.9463 26.8933 65.589 26.8453 65.237 26.76C64.885 26.664 64.5437 26.5307 64.213 26.36C63.893 26.1787 63.5997 25.9547 63.333 25.688C63.0023 25.368 62.7303 25 62.517 24.584C62.3037 24.1573 62.1383 23.7147 62.021 23.256C61.9037 22.7867 61.829 22.3173 61.797 21.848C61.765 21.3787 61.765 20.9307 61.797 20.504C61.829 20.1093 61.9037 19.688 62.021 19.24C62.149 18.792 62.3303 18.36 62.565 17.944C62.7997 17.528 63.0823 17.1547 63.413 16.824C63.7543 16.4827 64.149 16.2267 64.597 16.056ZM68.341 22.904C68.469 22.4027 68.5223 21.8373 68.501 21.208C68.4797 20.5787 68.3783 19.9867 68.197 19.432C68.0797 19.0907 67.9303 18.792 67.749 18.536C67.5783 18.2693 67.3703 18.0667 67.125 17.928C66.8903 17.7893 66.613 17.72 66.293 17.72C65.973 17.72 65.6157 17.816 65.221 18.008C64.9863 18.1253 64.7837 18.2853 64.613 18.488C64.453 18.6907 64.3197 18.92 64.213 19.176C64.117 19.432 64.037 19.6987 63.973 19.976C63.9197 20.2533 63.8877 20.52 63.877 20.776C63.8557 21.0533 63.8503 21.3467 63.861 21.656C63.8717 21.9547 63.9037 22.2587 63.957 22.568C64.021 22.8667 64.1063 23.1547 64.213 23.432C64.3197 23.6987 64.4637 23.9387 64.645 24.152C64.9223 24.472 65.2423 24.696 65.605 24.824C65.9783 24.9413 66.3463 24.9573 66.709 24.872C67.2957 24.744 67.7437 24.3547 68.053 23.704C68.181 23.4693 68.277 23.2027 68.341 22.904ZM81.9465 25.848C81.9358 25.976 81.9198 26.1093 81.8985 26.248C81.8772 26.3867 81.8398 26.5147 81.7865 26.632C81.7332 26.76 81.6638 26.856 81.5785 26.92C81.4612 27.0267 81.3225 27.0853 81.1625 27.096C81.0132 27.1493 80.8692 27.1653 80.7305 27.144C80.5918 27.1227 80.4638 27.0853 80.3465 27.032C80.1972 26.936 80.0852 26.824 80.0105 26.696C79.9465 26.5573 79.8985 26.4133 79.8665 26.264C79.8345 26.1147 79.8185 25.96 79.8185 25.8C79.8185 25.64 79.8185 25.4907 79.8185 25.352V24.104L79.8025 21.656C79.8025 21.4853 79.8025 21.352 79.8025 21.256C79.8025 21.16 79.8025 21.0747 79.8025 21C79.8025 20.9147 79.7972 20.824 79.7865 20.728C79.7865 20.6213 79.7865 20.472 79.7865 20.28C79.7865 20.248 79.7865 20.1947 79.7865 20.12C79.7972 20.0347 79.7918 19.816 79.7705 19.464C79.3545 20.1573 79.0078 20.7173 78.7305 21.144C78.4638 21.56 78.2345 21.8853 78.0425 22.12C77.8612 22.344 77.7012 22.4987 77.5625 22.584C77.4238 22.6587 77.2798 22.7013 77.1305 22.712C77.0452 22.7227 76.9598 22.7067 76.8745 22.664C76.7892 22.6213 76.7038 22.568 76.6185 22.504C76.5438 22.44 76.4692 22.376 76.3945 22.312C76.3305 22.2373 76.2772 22.168 76.2345 22.104C75.9785 21.784 75.6905 21.4 75.3705 20.952C75.0505 20.504 74.7198 19.96 74.3785 19.32C74.3785 19.3307 74.3732 19.5067 74.3625 19.848C74.3625 20.1893 74.3625 20.616 74.3625 21.128C74.3625 21.6293 74.3572 22.1733 74.3465 22.76C74.3465 23.336 74.3412 23.8747 74.3305 24.376C74.3305 24.8773 74.3252 25.2987 74.3145 25.64C74.3038 25.9707 74.2932 26.136 74.2825 26.136C74.2825 26.3173 74.2398 26.488 74.1545 26.648C74.0692 26.7973 73.9518 26.92 73.8025 27.016C73.6638 27.112 73.4985 27.1653 73.3065 27.176C73.1145 27.1867 72.9065 27.1333 72.6825 27.016C72.5438 26.9307 72.4372 26.808 72.3625 26.648C72.2985 26.488 72.2558 26.3387 72.2345 26.2C72.2238 26.0507 72.2132 25.9067 72.2025 25.768C72.2025 25.6293 72.2025 25.4853 72.2025 25.336L72.2185 24.088L72.2345 21.624V19.48C72.2345 18.552 72.2665 17.64 72.3305 16.744C72.3305 16.6267 72.3412 16.52 72.3625 16.424C72.3945 16.3173 72.4318 16.216 72.4745 16.12C72.5598 15.9493 72.6718 15.8213 72.8105 15.736C72.9705 15.64 73.1412 15.592 73.3225 15.592C73.3972 15.592 73.4665 15.5973 73.5305 15.608C73.6052 15.608 73.6745 15.6133 73.7385 15.624C73.9518 15.6667 74.1332 15.7947 74.2825 16.008C74.4425 16.2107 74.5918 16.3867 74.7305 16.536C74.8158 16.632 74.9065 16.7493 75.0025 16.888C75.0985 17.0267 75.1945 17.1707 75.2905 17.32C75.3865 17.4693 75.4772 17.6133 75.5625 17.752C75.6478 17.8907 75.7225 18.0133 75.7865 18.12C76.0638 18.568 76.3092 18.9787 76.5225 19.352C76.7465 19.7253 76.9545 20.0453 77.1465 20.312C77.1785 20.28 77.2158 20.2373 77.2585 20.184C77.3012 20.12 77.3438 20.056 77.3865 19.992C77.4398 19.9173 77.4825 19.848 77.5145 19.784C77.5572 19.72 77.5892 19.6667 77.6105 19.624C77.7172 19.4533 77.8238 19.288 77.9305 19.128C78.0372 18.9573 78.1492 18.7813 78.2665 18.6C78.3945 18.408 78.5225 18.2 78.6505 17.976C78.7892 17.752 78.9492 17.496 79.1305 17.208C79.2052 17.08 79.3012 16.9253 79.4185 16.744C79.5358 16.5627 79.6692 16.3867 79.8185 16.216C79.9678 16.0453 80.1225 15.9013 80.2825 15.784C80.4532 15.656 80.6238 15.592 80.7945 15.592C80.8798 15.592 80.9545 15.5973 81.0185 15.608C81.0825 15.608 81.1465 15.6133 81.2105 15.624C81.3385 15.6347 81.4612 15.6933 81.5785 15.8C81.6638 15.8853 81.7278 15.976 81.7705 16.072C81.8132 16.2107 81.8398 16.328 81.8505 16.424C81.8612 16.4987 81.8665 16.568 81.8665 16.632C81.8772 16.696 81.8825 16.76 81.8825 16.824C81.8825 17.4213 81.8878 18.0133 81.8985 18.6C81.9092 19.1867 81.9145 19.7787 81.9145 20.376C81.9145 21.1013 81.9145 21.848 81.9145 22.616C81.9252 23.384 81.9305 24.1307 81.9305 24.856C81.9305 25.0053 81.9358 25.1653 81.9465 25.336C81.9572 25.5067 81.9572 25.6773 81.9465 25.848ZM85.4414 17.592L85.4094 20.104H86.0494C86.4867 20.0933 86.876 20.088 87.2174 20.088C87.5587 20.088 87.9374 20.0933 88.3534 20.104H88.4334C88.5614 20.104 88.684 20.1093 88.8014 20.12C88.9294 20.12 89.052 20.12 89.1694 20.12C89.2974 20.1307 89.42 20.152 89.5374 20.184C89.6547 20.2053 89.772 20.232 89.8894 20.264C90.0707 20.328 90.22 20.424 90.3374 20.552C90.444 20.6907 90.4974 20.8453 90.4974 21.016C90.4974 21.0693 90.4974 21.1333 90.4974 21.208C90.4974 21.272 90.4867 21.3307 90.4654 21.384C90.444 21.5013 90.3747 21.608 90.2574 21.704C90.204 21.7787 90.1027 21.832 89.9534 21.864C89.8147 21.9067 89.676 21.9333 89.5374 21.944C89.388 21.976 89.2387 21.992 89.0894 21.992H88.3374L85.3774 22.008L85.3454 25.144L88.5294 25.176H89.2814C89.3667 25.176 89.4467 25.176 89.5214 25.176C89.596 25.176 89.6654 25.1813 89.7294 25.192C89.8147 25.2133 89.8894 25.2293 89.9534 25.24C90.028 25.24 90.0974 25.2507 90.1614 25.272C90.2894 25.3147 90.396 25.3733 90.4814 25.448C90.588 25.5547 90.6574 25.6667 90.6894 25.784C90.7 25.8373 90.7054 25.896 90.7054 25.96C90.716 26.0133 90.716 26.072 90.7054 26.136C90.7054 26.3067 90.652 26.4613 90.5454 26.6C90.4174 26.7493 90.268 26.8453 90.0974 26.888C89.8734 26.984 89.628 27.032 89.3614 27.032C89.244 27.0427 89.1214 27.048 88.9934 27.048C88.8654 27.048 88.7427 27.0533 88.6254 27.064H88.5294C87.6974 27.0853 86.8334 27.0853 85.9374 27.064C85.724 27.064 85.5534 27.0587 85.4254 27.048C85.2974 27.048 85.18 27.048 85.0734 27.048C84.9774 27.048 84.876 27.048 84.7694 27.048C84.6627 27.048 84.524 27.048 84.3534 27.048C84.108 27.0693 83.9054 27.0267 83.7454 26.92C83.628 26.8453 83.5374 26.744 83.4734 26.616C83.4414 26.584 83.4254 26.552 83.4254 26.52C83.4147 26.4987 83.404 26.4827 83.3934 26.472C83.3827 26.4613 83.372 26.4453 83.3614 26.424C83.34 26.3707 83.324 26.3173 83.3134 26.264C83.3027 26.2 83.2974 26.1413 83.2974 26.088C83.2867 26.0347 83.276 25.9813 83.2654 25.928C83.2654 25.8747 83.26 25.8213 83.2494 25.768V25.512C83.2494 25.4693 83.2494 25.4267 83.2494 25.384C83.26 25.3413 83.2654 25.2987 83.2654 25.256V24.008L83.2974 21.704V19.576C83.2974 19.192 83.2974 18.8507 83.2974 18.552C83.308 18.2533 83.3187 17.928 83.3294 17.576V17.496C83.34 17.3787 83.3454 17.272 83.3454 17.176C83.356 17.0693 83.3614 16.9627 83.3614 16.856C83.372 16.6427 83.4307 16.4347 83.5374 16.232C83.58 16.1467 83.6227 16.072 83.6654 16.008C83.7187 15.944 83.788 15.8907 83.8734 15.848C84.0334 15.752 84.1987 15.704 84.3694 15.704C84.4547 15.704 84.5187 15.7093 84.5614 15.72V15.704C84.7534 15.704 84.908 15.704 85.0254 15.704C85.1427 15.704 85.2547 15.704 85.3614 15.704C85.4787 15.704 85.6014 15.704 85.7294 15.704C85.8574 15.6933 86.0334 15.688 86.2574 15.688C86.684 15.6773 87.0894 15.672 87.4734 15.672C87.8574 15.672 88.252 15.6773 88.6574 15.688H88.7214C88.8387 15.6987 88.9614 15.704 89.0894 15.704C89.2174 15.704 89.34 15.7093 89.4574 15.72C89.5747 15.72 89.692 15.736 89.8094 15.768C89.9267 15.7893 90.044 15.8213 90.1614 15.864C90.3427 15.9173 90.492 16.008 90.6094 16.136C90.7054 16.2853 90.7534 16.4347 90.7534 16.584C90.7534 16.648 90.7534 16.712 90.7534 16.776C90.7534 16.8293 90.7427 16.8827 90.7214 16.936C90.7107 17.0427 90.6467 17.1547 90.5294 17.272C90.4867 17.2933 90.4387 17.32 90.3854 17.352C90.3427 17.384 90.2894 17.4107 90.2254 17.432C90.1614 17.4533 90.092 17.4693 90.0174 17.48C89.9534 17.48 89.8894 17.4853 89.8254 17.496C89.74 17.5173 89.66 17.528 89.5854 17.528C89.5214 17.528 89.4467 17.528 89.3614 17.528H88.6414L85.4414 17.544V17.592ZM101.903 25.912C101.913 25.976 101.919 26.04 101.919 26.104C101.929 26.1573 101.935 26.2213 101.935 26.296C101.935 26.424 101.897 26.5413 101.823 26.648C101.791 26.7013 101.748 26.7547 101.695 26.808C101.641 26.8507 101.577 26.888 101.503 26.92C101.236 27.0693 100.953 27.1227 100.655 27.08C100.505 27.0373 100.372 26.968 100.255 26.872C100.233 26.8507 100.217 26.84 100.207 26.84C100.196 26.8293 100.185 26.8133 100.175 26.792C100.164 26.7813 100.153 26.7707 100.143 26.76C100.132 26.7387 100.116 26.7227 100.095 26.712C100.041 26.6587 99.9986 26.6107 99.9666 26.568C99.9346 26.5147 99.9026 26.4613 99.8706 26.408C99.8493 26.3547 99.8226 26.3067 99.7906 26.264C99.7693 26.2107 99.7426 26.1573 99.7106 26.104C99.6893 26.0613 99.668 26.024 99.6466 25.992C99.6253 25.9493 99.6093 25.9067 99.5986 25.864C99.556 25.768 99.5293 25.6827 99.5186 25.608L99.1826 24.824C98.4466 24.824 97.7106 24.8293 96.9746 24.84C96.2493 24.84 95.5186 24.8347 94.7826 24.824L94.4466 25.608C94.4253 25.6507 94.4093 25.6933 94.3986 25.736C94.3986 25.7787 94.388 25.8213 94.3666 25.864C94.3453 25.9067 94.324 25.9493 94.3026 25.992C94.292 26.024 94.276 26.0613 94.2546 26.104C94.2226 26.1573 94.1906 26.2107 94.1586 26.264C94.1373 26.3067 94.1106 26.3547 94.0786 26.408C94.0573 26.4613 94.0306 26.5147 93.9986 26.568C93.9666 26.6107 93.924 26.6587 93.8706 26.712C93.8493 26.7227 93.8333 26.7387 93.8226 26.76C93.812 26.7707 93.8013 26.7813 93.7906 26.792C93.78 26.8133 93.7693 26.8293 93.7586 26.84C93.748 26.84 93.732 26.8507 93.7106 26.872C93.5933 26.968 93.46 27.0373 93.3106 27.08C93.012 27.1227 92.7293 27.0693 92.4626 26.92C92.388 26.888 92.324 26.8507 92.2706 26.808C92.2173 26.7547 92.1746 26.7013 92.1426 26.648C92.068 26.5413 92.0306 26.424 92.0306 26.296C92.0306 26.2213 92.0306 26.1573 92.0306 26.104C92.0413 26.04 92.052 25.976 92.0626 25.912C92.084 25.816 92.1106 25.72 92.1426 25.624C92.1746 25.528 92.1906 25.48 92.1906 25.48L95.5186 17.288L95.6146 17.032C95.636 16.968 95.6626 16.9093 95.6946 16.856C95.7266 16.8027 95.7533 16.7387 95.7746 16.664C95.828 16.5253 95.8866 16.4027 95.9506 16.296C95.9826 16.232 96.02 16.1733 96.0626 16.12C96.1053 16.0667 96.148 16.0133 96.1906 15.96C96.2546 15.8747 96.3453 15.8053 96.4626 15.752C96.612 15.6987 96.7826 15.672 96.9746 15.672C97.1773 15.672 97.3533 15.6987 97.5026 15.752C97.62 15.8053 97.7106 15.8747 97.7746 15.96C97.8493 16.056 97.9293 16.168 98.0146 16.296C98.0786 16.4027 98.1373 16.5253 98.1906 16.664C98.212 16.7387 98.2386 16.8027 98.2706 16.856C98.3026 16.9093 98.3293 16.968 98.3506 17.032L98.4466 17.288L101.775 25.48C101.775 25.48 101.791 25.528 101.823 25.624C101.855 25.72 101.881 25.816 101.903 25.912ZM98.1106 21.992C97.972 21.6827 97.828 21.3627 97.6786 21.032C97.54 20.7013 97.3906 20.3653 97.2306 20.024C97.188 19.928 97.1453 19.832 97.1026 19.736C97.06 19.6293 97.0173 19.528 96.9746 19.432C96.9426 19.528 96.9053 19.6293 96.8626 19.736C96.82 19.832 96.7773 19.928 96.7346 20.024C96.5746 20.3653 96.42 20.7013 96.2706 21.032C96.132 21.3627 95.9933 21.6827 95.8546 21.992L95.5666 22.696H98.3986L98.1106 21.992Z" fill="#302833"/>
<path d="M13.2602 12.6417C14.4149 10.6417 17.3016 10.6417 18.4563 12.6417L26.9939 27.4291C28.1486 29.4291 26.7052 31.9291 24.3958 31.9291H7.32075C5.01135 31.9291 3.56798 29.4291 4.72268 27.4291L13.2602 12.6417Z" fill="url(#paint0_linear_25_47)"/>
<path d="M13.2602 12.6417C14.4149 10.6417 17.3016 10.6417 18.4563 12.6417L26.9939 27.4291C28.1486 29.4291 26.7052 31.9291 24.3958 31.9291H7.32075C5.01135 31.9291 3.56798 29.4291 4.72268 27.4291L13.2602 12.6417Z" fill="#FF47ED" fill-opacity="0.49"/>
<g style="mix-blend-mode:lighten">
<path d="M24.4564 27.2165C23.3017 29.2165 20.4149 29.2165 19.2602 27.2165L10.7227 12.4291C9.56799 10.4291 11.0114 7.92912 13.3208 7.92912L30.3958 7.92912C32.7052 7.92912 34.1486 10.4291 32.9939 12.4291L24.4564 27.2165Z" fill="url(#paint1_linear_25_47)"/>
</g>
<defs>
<linearGradient id="paint0_linear_25_47" x1="0" y1="8.14172" x2="32.3083" y2="8.14172" gradientUnits="userSpaceOnUse">
<stop stop-color="#FF5FAC"/>
<stop offset="1" stop-color="#FFD952"/>
</linearGradient>
<linearGradient id="paint1_linear_25_47" x1="40.4292" y1="12.311" x2="12.4685" y2="6.88581" gradientUnits="userSpaceOnUse">
<stop stop-color="#2965FF"/>
<stop offset="1" stop-color="#29D9FF"/>
</linearGradient>
</defs>
</svg>
