<svg width="114" height="120" viewBox="0 0 114 120" fill="none" xmlns="http://www.w3.org/2000/svg">
<path d="M42.1894 35.1249C44.8837 30.4582 51.6195 30.4582 54.3138 35.1249L83.4881 85.6562C86.1824 90.3229 82.8145 96.1562 77.4259 96.1562H19.0773C13.6887 96.1562 10.3208 90.3229 13.0151 85.6562L42.1894 35.1249Z" fill="url(#paint0_linear_74_26)"/>
<path d="M42.1894 35.1249C44.8837 30.4582 51.6195 30.4582 54.3138 35.1249L83.4881 85.6562C86.1824 90.3229 82.8145 96.1562 77.4259 96.1562H19.0773C13.6887 96.1562 10.3208 90.3229 13.0151 85.6562L42.1894 35.1249Z" fill="#FF47ED" fill-opacity="0.49"/>
<g style="mix-blend-mode:lighten">
<path d="M72.3565 85.0169C69.6622 89.6836 62.9264 89.6836 60.2321 85.0169L31.0578 34.4855C28.3635 29.8189 31.7314 23.9856 37.12 23.9856L95.4686 23.9856C100.857 23.9856 104.225 29.8189 101.531 34.4856L72.3565 85.0169Z" fill="url(#paint1_linear_74_26)"/>
</g>
<defs>
<linearGradient id="paint0_linear_74_26" x1="0.564026" y1="24.6249" x2="97.7186" y2="24.6249" gradientUnits="userSpaceOnUse">
<stop stop-color="#FF5FAC"/>
<stop offset="1" stop-color="#FFD952"/>
</linearGradient>
<linearGradient id="paint1_linear_74_26" x1="122.139" y1="37.1624" x2="38.0582" y2="20.8482" gradientUnits="userSpaceOnUse">
<stop stop-color="#2965FF"/>
<stop offset="1" stop-color="#29D9FF"/>
</linearGradient>
</defs>
</svg>
