<?xml version="1.0" encoding="utf-8"?>
<!-- Generator: Adobe Illustrator 26.3.1, SVG Export Plug-In . SVG Version: 6.00 Build 0)  -->
<svg version="1.1" id="Layer_1" xmlns="http://www.w3.org/2000/svg" xmlns:xlink="http://www.w3.org/1999/xlink" x="0px" y="0px"
	 viewBox="0 0 34 34" style="enable-background:new 0 0 34 34;" xml:space="preserve">
<style type="text/css">
	.st0{fill:#FFFFFF;}
	.st1{fill:url(#SVGID_1_);}
	.st2{fill:url(#SVGID_00000030483391921564427780000009909782134793589934_);}
	.st3{fill:url(#SVGID_00000041280899513508854420000006093487636598027409_);}
</style>
<path class="st0" d="M98.5,25.1V20h2.7c1.7,0,2.8,1,2.8,2.6c0,1.5-1.1,2.5-2.8,2.5H98.5z M101.6,28.1c3.5,0,5.9-2.3,5.9-5.6
	c0-3.2-2.3-5.6-5.9-5.6H95v17.8h3.5v-6.7H101.6z"/>
<path class="st0" d="M123.7,31.5c0,1.9,1.6,3.7,4.2,3.7c1.8,0,3-0.9,3.6-1.8c0,0.5,0.1,1.2,0.1,1.5h3.1c-0.1-0.4-0.2-1.3-0.2-2v-6.1
	c0-2.5-1.5-4.7-5.4-4.7c-3.3,0-5.1,2.1-5.3,4.1l3,0.6c0.1-1.1,0.9-2,2.4-2c1.4,0,2.1,0.7,2.1,1.6c0,0.4-0.2,0.8-0.9,0.9l-3,0.5
	C125.4,28,123.7,29.2,123.7,31.5z M128.7,32.7c-1.1,0-1.6-0.7-1.6-1.4c0-1,0.7-1.4,1.5-1.6l2.8-0.4v0.6
	C131.4,32,130.1,32.7,128.7,32.7z"/>
<path class="st0" d="M141.4,27.7c0-1.4,0.9-2.6,2.3-2.6c1.6,0,2.3,1.1,2.3,2.5v7.2h3.3V27c0-2.7-1.4-4.9-4.5-4.9
	c-1.3,0-2.8,0.6-3.6,1.9v-1.5H138v12.4h3.3V27.7z"/>
<path class="st0" d="M156.9,18.8h-3v1.7c0,1.1-0.6,2-1.9,2h-0.6v3h2.2v5.8c0,2.4,1.5,3.8,3.9,3.8c1,0,1.6-0.2,1.9-0.3v-2.8
	c-0.2,0.1-0.6,0.1-1,0.1c-1,0-1.5-0.4-1.5-1.4v-5.2h2.5v-3h-2.5V18.8z"/>
<path class="st0" d="M167.6,32.2c-1.6,0-3.1-1.2-3.1-3.5c0-2.3,1.5-3.5,3.1-3.5s3.1,1.2,3.1,3.5S169.3,32.2,167.6,32.2z M167.6,22.1
	c-3.7,0-6.5,2.7-6.5,6.6c0,3.8,2.8,6.6,6.5,6.6s6.5-2.8,6.5-6.6C174.1,24.8,171.3,22.1,167.6,22.1z"/>
<path class="st0" d="M180.1,34.8v-7.2c0-1.4,0.9-2.4,2.3-2.4c1.5,0,2.2,1,2.2,2.3v7.3h3.3v-7.2c0-1.3,0.9-2.4,2.3-2.4
	c1.5,0,2.2,1,2.2,2.3v7.3h3.2v-8c0-3.3-2.2-4.7-4.5-4.7c-1.6,0-2.9,0.6-3.9,2.1c-0.6-1.3-2-2.1-3.7-2.1c-1.4,0-2.9,0.7-3.6,1.9v-1.5
	h-3.2v12.4H180.1z"/>
<g>
	<linearGradient id="SVGID_1_" gradientUnits="userSpaceOnUse" x1="17" y1="34" x2="17" y2="-9.094947e-13">
		<stop  offset="0" style="stop-color:#FFFFFF"/>
		<stop  offset="1" style="stop-color:#FFFFFF;stop-opacity:0.82"/>
	</linearGradient>
	<path class="st1" d="M17,0C7.6,0,0,7.6,0,17s7.6,17,17,17s17-7.6,17-17S26.4,0,17,0z M16.7,28.6h-0.8C9.7,28.6,3.9,23.2,4,17
		C4.1,11,9,6.1,15.1,6.1c6.1,0,11.1,5,11.1,11.1h3c1,0,1.8,0.9,1.5,1.9C29.6,24.3,22.2,28.6,16.7,28.6z"/>
	
		<linearGradient id="SVGID_00000119118814015539626450000016884244984547107972_" gradientUnits="userSpaceOnUse" x1="9.1323" y1="18.9639" x2="9.1323" y2="13.5926">
		<stop  offset="0" style="stop-color:#FFFFFF"/>
		<stop  offset="1" style="stop-color:#FFFFFF;stop-opacity:0.82"/>
	</linearGradient>
	<path style="fill:url(#SVGID_00000119118814015539626450000016884244984547107972_);" d="M9.1,13.6c-0.8,0-1.5,0.7-1.5,1.5v2.4
		c0,0.8,0.7,1.5,1.5,1.5s1.5-0.7,1.5-1.5v-2.4C10.6,14.3,10,13.6,9.1,13.6z"/>
	
		<linearGradient id="SVGID_00000029005685318290373020000012828491605688495291_" gradientUnits="userSpaceOnUse" x1="14.3062" y1="18.9639" x2="14.3062" y2="13.5926">
		<stop  offset="0" style="stop-color:#FFFFFF"/>
		<stop  offset="1" style="stop-color:#FFFFFF;stop-opacity:0.82"/>
	</linearGradient>
	<path style="fill:url(#SVGID_00000029005685318290373020000012828491605688495291_);" d="M14.3,13.6c-0.8,0-1.5,0.7-1.5,1.5v2.4
		c0,0.8,0.7,1.5,1.5,1.5c0.8,0,1.5-0.7,1.5-1.5v-2.4C15.8,14.3,15.1,13.6,14.3,13.6z"/>
</g>
</svg>
