<svg width="98" height="32" viewBox="0 0 98 32" fill="none" xmlns="http://www.w3.org/2000/svg">
<path fill-rule="evenodd" clip-rule="evenodd" d="M89.4035 5.89474H93.7018L98 10.1053V24.4211L90.2632 32H68.7719L65.3333 28.6316V32H54.1579L50.7193 28.6316V32H27.5088L24.0702 28.6316V32H12.0351L0 20.2105V0H9.45614L13.7974 5.89474H40.4035V0H59.3158V5.89474H65.3333V8.42105L67.9123 5.89474H75.625L79.9654 0H89.4035V5.89474ZM8.59694 7.57895H14.614V7.57898H14.6145V14.3167H8.59694V16H14.614V16H14.6145V22.7377H5.15835L1.71975 19.3693V19.3689L1.7193 19.3684V1.68421H8.59649V1.68424H8.59694V7.57895ZM19.7719 22.7368H19.7722L19.7731 22.7377H40.4046V7.57897L40.4035 7.57895H33.5263V16H31.8081V7.57897H31.807V7.57895H24.9298V16H23.2117V7.57897H23.2105V7.57895H16.3333V19.3684L19.7719 22.7368ZM48.9984 22.7369L49 22.7368V7.57895H42.1228L42.1212 7.57897V22.7369H48.9984ZM49 5.89474H48.9984V5.89477H42.1212V1.68424H42.1228V1.68421H49V5.89474ZM57.5972 7.57895H63.614V7.57898H63.6147V14.3167H57.5972V16L63.614 16L63.6147 16V22.7377H54.1586L50.72 19.3693V19.3691L50.7193 19.3684V1.68421H57.5965V1.68424H57.5972V7.57895ZM79.0859 14.3158H79.0877V7.57895H68.7719L68.7702 7.57897L65.3316 10.9482V19.3693L68.7702 22.7377H79.0859V22.7368H79.0877V16H72.2105V14.3166H79.0859V14.3158ZM96.2798 22.7368V22.7377H89.4026V14.3167H87.6842V22.7368H87.6833V22.7377H80.8062V1.68424L80.807 1.68421H87.6842V7.57895H92.8421L96.2807 10.9474V22.7368H96.2798Z" fill="white" fill-opacity="0.3"/>
</svg>
